<svg width="1442" height="450" viewBox="0 0 1442 450" fill="none" xmlns="http://www.w3.org/2000/svg">
<g clip-path="url(#clip0_1620_142)">
<g clip-path="url(#clip1_1620_142)">
<g clip-path="url(#clip2_1620_142)">
<path d="M1209.13 135.257L1732.68 666.861L1929.13 567.443V-203.452H1508.65L1209.13 135.257Z" fill="#F28521"/>
<path d="M938.346 441.627L1317.1 244.96L1209.13 135.257L938.346 441.627Z" fill="#E559A0"/>
<path d="M1298.63 254.559L1508.65 776.565L1732.68 666.861L1317.1 244.96L1298.63 254.559Z" fill="#00B3E7"/>
<path d="M741.216 664.576L938.346 441.627L1298.63 254.56L1508.65 776.565L741.216 664.576Z" fill="#04BFE9"/>
</g>
</g>
<g clip-path="url(#clip3_1620_142)">
<path d="M724 212.709L1247.55 752.471L1444 651.527V-131.197H1023.52L724 212.709Z" fill="#02883E"/>
<path d="M453.216 523.78L831.972 324.096L724 212.709L453.216 523.78Z" fill="#E559A0"/>
<path d="M813.501 333.842L1023.52 863.857L1247.55 752.47L831.972 324.096L813.501 333.842Z" fill="#00B3E7"/>
<path d="M256.086 750.15L453.216 523.78L813.501 333.842L1023.52 863.857L256.086 750.15Z" fill="#04BFE9"/>
</g>
</g>
<defs>
<clipPath id="clip0_1620_142">
<rect width="1442" height="450" fill="white"/>
</clipPath>
<clipPath id="clip1_1620_142">
<rect width="666" height="450" fill="white" transform="translate(776)"/>
</clipPath>
<clipPath id="clip2_1620_142">
<rect width="1440" height="450" fill="white" transform="translate(2)"/>
</clipPath>
<clipPath id="clip3_1620_142">
<rect width="991" height="578" fill="white" transform="matrix(-1 0 0 1 1444 -62)"/>
</clipPath>
</defs>
</svg>
