<?xml version="1.0" encoding="utf-8"?>
<!-- Generator: Adobe Illustrator 21.0.2, SVG Export Plug-In . SVG Version: 6.00 Build 0)  -->
<svg version="1.1" id="Layer_2" xmlns="http://www.w3.org/2000/svg" xmlns:xlink="http://www.w3.org/1999/xlink" x="0px" y="0px"
	 viewBox="0 0 1263 1077" style="enable-background:new 0 0 1263 1077;" xml:space="preserve">
<style type="text/css">
	.st0{fill:#14A8E0;}
	.st1{fill:#2096D3;}
	.st2{fill:#F28521;}
	.st3{fill:#03A54B;}
	.st4{fill:#E559A0;}
	.st5{fill:#02B7E7;}
	.st6{fill:#00B3E7;}
	.st7{fill:#04BFE9;}
</style>
<polygon class="st0" points="368.8,857.6 0,938.6 0,1077 536.8,1077 "/>
<polygon class="st1" points="172.3,761.6 368.8,857.6 0,938.6 "/>
<polygon class="st2" points="0,674.6 172.3,761.6 0,938.6 "/>
<polygon class="st3" points="631.5,296.4 172.3,761.6 0,674.6 0,0 368.8,0 "/>
<polygon class="st4" points="869,564.5 536.8,392.4 631.5,296.4 "/>
<polygon class="st5" points="1041.9,759.6 368.8,857.6 536.8,1077 1263,1077 1263,1009.1 "/>
<polygon class="st6" points="553,400.8 368.8,857.6 172.3,761.6 536.8,392.4 "/>
<polygon class="st7" points="1041.9,759.6 869,564.5 553,400.8 368.8,857.6 "/>
<polygon class="st1" points="1267.5,0 1267.5,1019.3 364.3,0 "/>
</svg>
