<svg xmlns="http://www.w3.org/2000/svg" viewBox="0 0 1440 450" fill="none"><g clip-path="url(#a)"><path fill="#02A54A" d="m85 103.257-523.553 531.604L-635 535.443v-770.895h420.485L85 103.257Z"/><path fill="#E559A0" d="M355.784 409.626-22.972 212.96 85 103.257l270.784 306.369Z"/><path fill="#04BFE9" d="m552.914 632.576-197.13-222.949L-4.501 222.56l-210.015 522.005 767.43-111.989Z"/></g><g clip-path="url(#b)"><path fill="#E559A0" d="m1355.26 103.257 523.55 531.604 196.45-99.418v-770.895h-420.48l-299.52 338.709Z"/><path fill="#2096D3" d="m1084.48 409.626 378.75-196.666-107.97-109.703-270.78 306.369Z"/><path fill="#F28521" d="m887.345 632.576 197.135-222.949 360.28-187.067 210.02 522.005-767.435-111.989Z"/></g><defs><clipPath id="a"><path fill="#fff" d="M0 6h394v444H0z"/></clipPath><clipPath id="b"><path fill="#fff" d="M1045 6h395v444h-395z"/></clipPath></defs></svg>