<?xml version="1.0" encoding="utf-8"?>
<!-- Generator: Adobe Illustrator 21.0.2, SVG Export Plug-In . SVG Version: 6.00 Build 0)  -->
<svg version="1.1" id="Layer_2" xmlns="http://www.w3.org/2000/svg" xmlns:xlink="http://www.w3.org/1999/xlink" x="0px" y="0px"
	 viewBox="0 0 595.3 841.9" style="enable-background:new 0 0 595.3 841.9;" xml:space="preserve" width="1000px" height="1000px">
<style>.st0{fill:#FEE000;} .st1{fill:#14A8E0;} .st2{fill:#2096D3;} .st3{fill:#E559A0;} .st4{fill:#03A54B;} .st5{fill:#02B7E7;} .st6{fill:#00B3E7;} .st7{fill:#04BFE9;}</style><path class="st0" d="M-280.5-221.1H728.6L-280.5 673.1z"/><path class="st1" d="M577.1 673.1l81 368.8h138.4V505.1z"/><path class="st2" d="M481.1 869.6l96-196.5 81 368.8z"/><path class="st3" d="M394.1 1041.9l87-172.3 177 172.3z"/><path class="st4" d="M15.9 410.4l465.2 459.2-87 172.3h-674.6V673.1z"/><path class="st3" d="M284 172.9L111.9 505.1l-96-94.7z"/><path class="st5" d="M479.1 0l98 673.1 219.4-168v-726.2h-67.9z"/><path class="st6" d="M120.3 488.9l456.8 184.2-96 196.5-369.2-364.5z"/><path class="st7" d="M479.1 0L284 172.9l-163.7 316 456.8 184.2z"/>
</svg>
