<?xml version="1.0" standalone="no"?>
<!DOCTYPE svg PUBLIC "-//W3C//DTD SVG 20010904//EN"
 "http://www.w3.org/TR/2001/REC-SVG-20010904/DTD/svg10.dtd">
<svg version="1.0" xmlns="http://www.w3.org/2000/svg"
 width="16.000000pt" height="16.000000pt" viewBox="0 0 16.000000 16.000000"
 preserveAspectRatio="xMidYMid meet">
<metadata>
Created by potrace 1.11, written by Peter Selinger 2001-2013
</metadata>
<g transform="translate(0.000000,16.000000) scale(0.006154,-0.006154)"
fill="#000000" stroke="none">
<path d="M1867 2544 c-1 -1 -65 -5 -142 -9 -77 -4 -167 -8 -200 -10 -33 -3
-112 -7 -175 -10 -216 -10 -325 -16 -390 -20 -36 -3 -121 -7 -190 -10 -69 -4
-152 -8 -185 -10 -33 -1 -116 -6 -185 -10 -141 -7 -195 -17 -249 -44 -50 -26
-115 -99 -132 -147 -18 -53 -16 -192 5 -389 2 -22 7 -87 11 -144 4 -57 8 -111
10 -120 1 -9 6 -61 9 -116 4 -55 9 -118 11 -140 3 -22 7 -74 10 -115 3 -41 8
-97 10 -125 2 -27 7 -79 10 -115 6 -72 13 -158 20 -235 3 -27 7 -86 10 -130 3
-44 7 -98 10 -120 2 -22 6 -83 10 -135 7 -105 13 -162 19 -168 3 -2 4 435 4
972 0 537 4 991 7 1009 16 72 62 135 125 173 81 49 61 48 990 49 481 1 890 -2
907 -6 l33 -7 -21 30 c-54 76 -145 111 -273 106 -37 -2 -68 -4 -69 -4z"/>
<path d="M2405 2271 c14 -27 29 -79 33 -113 12 -111 6 -1768 -7 -1813 -16 -55
-59 -114 -106 -147 -78 -53 -117 -57 -537 -63 l-388 -5 23 48 c12 26 68 140
124 255 57 114 103 209 103 211 0 2 72 151 161 332 89 181 178 365 199 409 21
44 81 168 133 275 53 107 95 195 94 197 -5 4 -371 -87 -378 -94 -5 -5 -71
-164 -147 -353 -342 -851 -514 -1275 -517 -1278 -6 -7 -95 -8 -105 -2 -6 4 9
62 40 151 88 250 191 542 210 594 11 28 47 129 80 225 130 368 232 656 245
692 l15 38 -117 160 -117 161 -12 -43 c-34 -121 -105 -377 -109 -394 -3 -10
-11 -41 -19 -69 -30 -108 -139 -502 -148 -535 -5 -19 -14 -51 -19 -70 -5 -19
-12 -44 -14 -55 -3 -11 -12 -42 -20 -70 -24 -80 -181 -652 -190 -692 -3 -12
-11 -39 -18 -60 -12 -38 -12 -38 -70 -40 -31 -1 -57 0 -57 3 0 2 30 136 66
297 36 160 67 299 69 307 2 8 9 38 15 65 7 28 14 62 16 76 2 14 8 38 13 52 6
15 8 27 6 27 -2 0 -1 10 4 23 5 13 12 40 15 60 3 20 17 85 31 144 24 99 70
302 132 578 13 61 26 117 28 125 43 185 68 303 66 311 -2 14 -335 -169 -342
-188 -4 -10 -10 -41 -13 -67 -4 -27 -21 -135 -38 -240 -16 -105 -31 -202 -33
-216 -3 -27 -13 -94 -19 -125 -9 -46 -19 -112 -21 -135 -6 -52 -17 -125 -21
-132 -2 -3 -7 -30 -10 -60 -3 -29 -16 -118 -29 -198 -13 -80 -26 -163 -30
-185 -3 -22 -10 -67 -15 -100 -5 -33 -12 -80 -16 -105 -3 -25 -8 -54 -10 -65
-1 -11 -11 -73 -20 -137 -20 -129 -13 -120 -89 -120 -40 0 -46 2 -41 10 3 5 8
35 11 68 3 32 8 79 11 104 2 25 7 64 9 87 3 24 7 62 10 85 15 133 35 321 40
373 5 58 11 104 20 175 4 32 9 76 21 188 11 109 15 147 30 267 4 28 7 57 6 65
0 13 6 69 32 295 3 28 9 79 12 115 3 36 7 70 9 77 2 6 -33 42 -78 80 -45 37
-95 80 -112 95 -76 67 -100 87 -103 83 -2 -2 -5 -59 -7 -127 -3 -113 -8 -232
-20 -503 -3 -55 -7 -170 -10 -255 -4 -85 -8 -195 -10 -245 -2 -49 -6 -171 -10
-270 -3 -99 -8 -218 -10 -265 -4 -80 -17 -413 -18 -472 -1 -30 -2 -31 -62 -30
-37 1 -38 0 -15 -9 14 -6 104 -12 200 -14 96 -3 267 -7 380 -10 113 -3 286 -7
385 -10 99 -2 286 -7 415 -11 129 -4 334 -7 455 -8 210 -1 222 0 270 22 60 28
110 74 135 125 29 60 29 54 45 377 3 63 8 144 10 180 4 66 13 237 20 390 2 47
6 126 9 175 3 50 8 142 11 205 3 63 8 144 10 180 3 36 7 135 10 220 4 135 2
162 -15 209 -32 89 -100 159 -173 177 l-27 6 25 -51z"/>
</g>
</svg>
